<svg width="62" height="40" viewBox="0 0 62 40" fill="none" xmlns="http://www.w3.org/2000/svg">
<g clip-path="url(#clip0_4880_22761)">
<g clip-path="url(#clip1_4880_22761)">
<g clip-path="url(#clip2_4880_22761)">
<rect y="0.421021" width="62" height="39.1579" rx="3.26316" fill="url(#paint0_linear_4880_22761)"/>
<g clip-path="url(#clip3_4880_22761)">
<path d="M53.031 29.6986H9.18508C6.96838 29.6986 5.16699 27.8973 5.16699 25.6754V13.0501C5.16699 10.8334 6.96838 9.03198 9.18508 9.03198H53.031C55.2529 9.03198 57.0491 10.8334 57.0491 13.0501V25.6754C57.0491 27.8973 55.2477 29.6986 53.031 29.6986Z" fill="url(#paint1_linear_4880_22761)"/>
<path d="M50.0677 15.5896L47.2955 26.1851L47.2852 26.2059H49.4499L52.2325 15.5896H50.0677Z" fill="#292929"/>
<path d="M15.735 21.6184C15.4495 21.7689 15.0601 21.8572 14.6915 21.8572C13.9128 21.8572 13.4716 21.7326 13.4249 21.1044V21.0629C13.4249 21.0369 13.4197 21.011 13.4197 20.985V19.1577L13.4249 18.9396V17.647H13.4197V17.0967L13.4249 16.8787V15.6328L11.4937 15.8871C12.8019 15.6328 13.5494 14.5997 13.5494 13.5718V12.9385H11.3795V15.9027L11.2549 15.9391V21.4315C11.3276 22.9733 12.3451 23.8922 14.0115 23.8922C14.6033 23.8922 15.2522 23.7572 15.7506 23.534L15.761 23.5288V21.6028L15.735 21.6184Z" fill="#292929"/>
<path d="M16.0748 15.1925L9.98535 16.1321V17.674L16.0748 16.7343V15.1925Z" fill="#292929"/>
<path d="M16.0748 17.4476L9.98535 18.3873V19.8616L16.0748 18.922V17.4476Z" fill="#292929"/>
<path d="M22.9056 18.1623C22.8174 16.4491 21.748 15.4316 20.0037 15.4316C19.0017 15.4316 18.1711 15.821 17.6105 16.553C17.0498 17.2849 16.7539 18.3595 16.7539 19.6626C16.7539 20.9656 17.0498 22.0454 17.6105 22.7722C18.1711 23.5042 19.0017 23.8935 20.0037 23.8935C21.748 23.8935 22.8226 22.8708 22.9056 21.1473V23.7326H25.0756V15.6081L22.9056 15.9404M23.0198 19.6626C23.0198 21.1836 22.2204 22.1648 20.99 22.1648C19.7182 22.1648 18.9602 21.2304 18.9602 19.6626C18.9602 18.0896 19.7182 17.1448 20.99 17.1448C21.6078 17.1448 22.1269 17.3836 22.4851 17.8404C22.8329 18.2921 23.0198 18.9202 23.0198 19.6626Z" fill="#292929"/>
<path d="M31.402 15.4287C29.6525 15.4287 28.5831 16.4462 28.5001 18.1645V13.2432L26.3301 13.5754V23.7296H28.5001V21.1444C28.5831 22.8679 29.6577 23.8906 31.402 23.8906C33.4474 23.8906 34.6673 22.3072 34.6673 19.6596C34.6673 17.0121 33.4474 15.4287 31.402 15.4287ZM30.4156 22.1619C29.1801 22.1619 28.3858 21.1807 28.3858 19.6596C28.3858 18.9173 28.5727 18.2891 28.9205 17.8427C29.2787 17.3858 29.7979 17.147 30.4156 17.147C31.6875 17.147 32.4455 18.0867 32.4455 19.6648C32.4455 21.2274 31.6875 22.1619 30.4156 22.1619Z" fill="#292929"/>
<path d="M40.568 15.429C38.8185 15.429 37.7491 16.4465 37.6661 18.1648V13.2434L35.4961 13.5757V23.7299H37.6661V21.1446C37.7491 22.8681 38.8237 23.8908 40.568 23.8908C42.6134 23.8908 43.8334 22.3075 43.8334 19.6599C43.8334 17.0123 42.6134 15.429 40.568 15.429ZM39.5869 22.1621C38.3513 22.1621 37.557 21.1809 37.557 19.6599C37.557 18.9175 37.7439 18.2894 38.0918 17.8429C38.45 17.3861 38.9691 17.1473 39.5869 17.1473C40.8587 17.1473 41.6167 18.0869 41.6167 19.6651C41.6167 21.2277 40.8587 22.1621 39.5869 22.1621Z" fill="#292929"/>
<path d="M43.8379 15.5896H46.1532L48.0377 23.7192H45.9611L43.8379 15.5896Z" fill="#292929"/>
</g>
</g>
</g>
<path d="M11.1602 1.23645H50.8398C53.1827 1.23645 54.8746 1.23788 56.1865 1.38C57.4832 1.52049 58.3122 1.79065 58.9648 2.26477C59.4219 2.59687 59.8242 2.99909 60.1562 3.45618C60.6304 4.1088 60.9005 4.93784 61.041 6.2345C61.1831 7.54646 61.1846 9.2383 61.1846 11.5812V28.4191C61.1846 30.762 61.1832 32.4538 61.041 33.7657C60.9005 35.0624 60.6304 35.8914 60.1562 36.5441C59.8242 37.001 59.4218 37.4025 58.9648 37.7345C58.3122 38.2087 57.4833 38.4797 56.1865 38.6202C54.8746 38.7624 53.1827 38.7628 50.8398 38.7628H11.1602C8.81729 38.7628 7.12544 38.7624 5.81348 38.6202C4.51675 38.4797 3.6878 38.2087 3.03516 37.7345C2.57819 37.4025 2.17578 37.001 1.84375 36.5441C1.36959 35.8914 1.09948 35.0624 0.958984 33.7657C0.816842 32.4538 0.81543 30.762 0.81543 28.4191V11.5812C0.81543 9.23829 0.816861 7.54646 0.958984 6.2345C1.09947 4.93784 1.36963 4.1088 1.84375 3.45618C2.17585 2.99909 2.57807 2.59687 3.03516 2.26477C3.68778 1.79065 4.51682 1.52049 5.81348 1.38C7.12544 1.23788 8.81728 1.23645 11.1602 1.23645Z" stroke="#F5F5F5" stroke-width="1.63158"/>
</g>
<rect x="0.815789" y="0.815789" width="60.3684" height="38.3684" rx="7.18421" stroke="#F5F5F5" stroke-width="1.63158"/>
<defs>
<linearGradient id="paint0_linear_4880_22761" x1="62" y1="20" x2="0" y2="20" gradientUnits="userSpaceOnUse">
<stop stop-color="#3BFFC7"/>
<stop offset="1" stop-color="#3BFF9E"/>
</linearGradient>
<linearGradient id="paint1_linear_4880_22761" x1="5.16699" y1="19.3645" x2="57.0496" y2="19.3645" gradientUnits="userSpaceOnUse">
<stop stop-color="#3BFF9D"/>
<stop offset="1" stop-color="#3BFFC8"/>
</linearGradient>
<clipPath id="clip0_4880_22761">
<rect width="62" height="40" rx="8" fill="white"/>
</clipPath>
<clipPath id="clip1_4880_22761">
<path d="M0 11.581C0 6.93135 0 4.60652 1.18409 2.97675C1.56651 2.4504 2.02938 1.98753 2.55573 1.60512C4.1855 0.421021 6.51033 0.421021 11.16 0.421021H50.84C55.4897 0.421021 57.8145 0.421021 59.4443 1.60512C59.9706 1.98753 60.4335 2.4504 60.8159 2.97675C62 4.60652 62 6.93135 62 11.581V28.4189C62 33.0686 62 35.3934 60.8159 37.0232C60.4335 37.5495 59.9706 38.0124 59.4443 38.3948C57.8145 39.5789 55.4897 39.5789 50.84 39.5789H11.16C6.51033 39.5789 4.1855 39.5789 2.55573 38.3948C2.02938 38.0124 1.56651 37.5495 1.18409 37.0232C0 35.3934 0 33.0686 0 28.4189V11.581Z" fill="white"/>
</clipPath>
<clipPath id="clip2_4880_22761">
<rect y="0.421021" width="62" height="39.1579" rx="3.26316" fill="white"/>
</clipPath>
<clipPath id="clip3_4880_22761">
<rect width="51.8821" height="20.6667" fill="white" transform="translate(5.16699 9.03198)"/>
</clipPath>
</defs>
</svg>
