<svg width="62" height="40" viewBox="0 0 62 40" fill="none" xmlns="http://www.w3.org/2000/svg">
<g clip-path="url(#clip0_4880_22780)">
<g clip-path="url(#clip1_4880_22780)">
<g clip-path="url(#clip2_4880_22780)">
<g filter="url(#filter0_f_4880_22780)">
<circle cx="12.9171" cy="32.2821" r="11.1944" fill="#BDD9EF"/>
</g>
<g filter="url(#filter1_f_4880_22780)">
<circle cx="27.556" cy="31.421" r="10.3333" fill="#E9DCED"/>
</g>
<g filter="url(#filter2_f_4880_22780)">
<ellipse cx="21.5273" cy="33.1431" rx="7.75" ry="10.3333" fill="#CFE3ED"/>
</g>
<g filter="url(#filter3_f_4880_22780)">
<circle cx="50.8052" cy="6.44878" r="9.47222" fill="#E0A5B6"/>
</g>
<g filter="url(#filter4_f_4880_22780)">
<circle cx="8.61122" cy="3.86537" r="12.0556" fill="#F7A183"/>
</g>
<g filter="url(#filter5_f_4880_22780)">
<circle cx="7.74957" cy="15.0599" r="9.47222" fill="#F0B8A7"/>
</g>
<g filter="url(#filter6_f_4880_22780)">
<ellipse cx="31.0004" cy="4.72654" rx="13.7778" ry="14.6389" fill="#F9E4B5"/>
</g>
<g filter="url(#filter7_f_4880_22780)">
<ellipse cx="18.083" cy="15.9209" rx="7.75" ry="8.61111" fill="#F4DDC9"/>
</g>
<g filter="url(#filter8_f_4880_22780)">
<circle cx="58.5556" cy="10.7544" r="12.0556" fill="#C56CAA"/>
</g>
<g filter="url(#filter9_f_4880_22780)">
<ellipse cx="56.9221" cy="31.8332" rx="12.7738" ry="10.6063" transform="rotate(60.7983 56.9221 31.8332)" fill="#9767AB"/>
</g>
<g filter="url(#filter10_f_4880_22780)">
<ellipse cx="57.7721" cy="22.7708" rx="14.6389" ry="6.6779" transform="rotate(0.674674 57.7721 22.7708)" fill="#9E65AA"/>
</g>
<g filter="url(#filter11_f_4880_22780)">
<circle cx="47.3619" cy="28.8377" r="9.47222" fill="#AC87BC"/>
</g>
<g filter="url(#filter12_f_4880_22780)">
<ellipse cx="41.3332" cy="31.421" rx="6.88889" ry="10.3333" fill="#D5A5CB"/>
</g>
<g filter="url(#filter13_f_4880_22780)">
<circle cx="33.5834" cy="30.5598" r="6.02778" fill="#EED8E9"/>
</g>
<g filter="url(#filter14_f_4880_22780)">
<circle cx="2.58257" cy="28.8377" r="9.47222" fill="#AFC7E6"/>
</g>
<g clip-path="url(#clip3_4880_22780)">
<path d="M19.412 16.9814C19.412 17.1075 19.2784 17.1884 19.1662 17.1312C18.666 16.8725 18.0967 16.7323 17.4929 16.7463C15.6255 16.7905 14.1096 18.3399 14.1074 20.2083C14.1042 22.1275 15.6589 23.6844 17.577 23.6844C18.1506 23.6844 18.6918 23.5453 19.1673 23.2984C19.2794 23.2402 19.4131 23.3221 19.4131 23.4483C19.4131 23.5421 19.4886 23.6165 19.5813 23.6165H21.0401C21.1339 23.6165 21.2083 23.541 21.2083 23.4483V16.9824C21.2083 16.8886 21.1328 16.8142 21.0401 16.8142H19.5813C19.4875 16.8142 19.412 16.8908 19.412 16.9824V16.9814ZM19.3743 20.3517C19.3096 21.1722 18.6444 21.8375 17.8239 21.9022C16.7802 21.9841 15.9166 21.1194 15.9985 20.0768C16.0632 19.2563 16.7285 18.5911 17.549 18.5264C18.5926 18.4444 19.4563 19.3091 19.3743 20.3517Z" fill="#010101"/>
<path d="M38.9208 16.9814C38.9208 17.1075 38.7871 17.1884 38.675 17.1312C38.1747 16.8725 37.6055 16.7323 37.0017 16.7463C35.1343 16.7905 33.6184 18.3399 33.6162 20.2083C33.613 22.1275 35.1677 23.6844 37.0858 23.6844C37.6594 23.6844 38.2006 23.5453 38.6761 23.2984C38.7882 23.2402 38.9219 23.3221 38.9219 23.4483C38.9219 23.5421 38.9974 23.6165 39.0901 23.6165H40.5489C40.6427 23.6165 40.7171 23.541 40.7171 23.4483V16.9824C40.7171 16.8886 40.6416 16.8142 40.5489 16.8142H39.0901C38.9963 16.8142 38.9208 16.8908 38.9208 16.9824V16.9814ZM38.8831 20.3517C38.8184 21.1722 38.1532 21.8375 37.3327 21.9022C36.289 21.9841 35.4254 21.1194 35.5073 20.0768C35.572 19.2563 36.2373 18.5911 37.0577 18.5264C38.1014 18.4444 38.965 19.3091 38.8831 20.3517Z" fill="#010101"/>
<path d="M52.252 16.9814C52.252 17.1075 52.1183 17.1884 52.0062 17.1312C51.5059 16.8725 50.9366 16.7323 50.3328 16.7463C48.4654 16.7894 46.9495 18.3399 46.9463 20.2083C46.9431 22.1275 48.4978 23.6844 50.4159 23.6844C50.9895 23.6844 51.5307 23.5453 52.0062 23.2984C52.1183 23.2402 52.252 23.3221 52.252 23.4483C52.252 23.5421 52.3275 23.6165 52.4202 23.6165H53.879C53.9728 23.6165 54.0472 23.541 54.0472 23.4483V16.9824C54.0472 16.8886 53.9717 16.8142 53.879 16.8142H52.4202C52.3275 16.8142 52.252 16.8908 52.252 16.9824V16.9814ZM52.2143 20.3517C52.1496 21.1722 51.4843 21.8375 50.6638 21.9022C49.6202 21.9841 48.7565 21.1194 48.8385 20.0768C48.9032 19.2563 49.5684 18.5911 50.3889 18.5264C51.4326 18.4444 52.2962 19.3091 52.2143 20.3517Z" fill="#010101"/>
<path d="M28.391 16.8132H22.557C22.4578 16.8132 22.377 16.8941 22.377 16.9933V23.306C22.377 23.4052 22.4578 23.4861 22.557 23.4861H24.1214C24.2206 23.4861 24.3015 23.4052 24.3015 23.306V18.8639C24.3015 18.7647 24.3824 18.6839 24.4816 18.6839H26.2843C26.3835 18.6839 26.4643 18.7647 26.4643 18.8639V23.3071C26.4643 23.4063 26.5452 23.4871 26.6444 23.4871H28.2088C28.308 23.4871 28.3889 23.4063 28.3889 23.3071V18.8639C28.3889 18.7647 28.4697 18.6839 28.5689 18.6839H30.3716C30.4708 18.6839 30.5517 18.7647 30.5517 18.8639V23.3071C30.5517 23.4063 30.6325 23.4871 30.7317 23.4871H32.2962C32.3954 23.4871 32.4762 23.4063 32.4762 23.3071V16.9933C32.4762 16.8941 32.3954 16.8132 32.2962 16.8132H30.5517H28.3899H28.391Z" fill="#010101"/>
<path d="M11.0473 18.6827H12.7271C12.7691 18.6827 12.8047 18.6493 12.8047 18.6051V16.8897C12.8047 16.8476 12.7713 16.812 12.7271 16.812H11.0473C11.0052 16.812 10.9696 16.7786 10.9696 16.7344V14.6449C10.9696 14.6136 10.9513 14.5856 10.9211 14.5738C10.8942 14.563 10.864 14.5684 10.8424 14.5867L7.67689 17.2897C7.637 17.3231 7.61328 17.3738 7.61328 17.4266V18.5015C7.61328 18.6007 7.69414 18.6816 7.79334 18.6816H9.04294V23.4083C9.04294 23.4504 9.07637 23.486 9.12057 23.486H12.9093C12.9513 23.486 12.9869 23.4525 12.9869 23.4083V21.6929C12.9869 21.6509 12.9535 21.6153 12.9093 21.6153H11.0462C11.0041 21.6153 10.9686 21.5819 10.9686 21.5377V18.7592C10.9696 18.7172 11.0041 18.6816 11.0462 18.6816L11.0473 18.6827Z" fill="#010101"/>
<path d="M43.8259 17.2154V16.9566C43.8259 16.8574 43.745 16.7766 43.6459 16.7766H42.0814C41.9822 16.7766 41.9014 16.8574 41.9014 16.9566V23.306C41.9014 23.4052 41.9822 23.486 42.0814 23.486H43.6459C43.745 23.486 43.8259 23.4052 43.8259 23.306V19.4946C43.8259 19.4181 43.8744 19.3502 43.9456 19.3254L45.9445 18.5987C46.0157 18.5728 46.0642 18.5049 46.0642 18.4294V16.6677L45.9909 16.6127L44.075 17.3846C43.9564 17.4332 43.827 17.3448 43.827 17.2175L43.8259 17.2154Z" fill="#010101"/>
</g>
</g>
</g>
<path d="M7.2002 1.23645H54.7998C56.3179 1.23645 57.3915 1.23764 58.2188 1.32727C59.0305 1.41525 59.5086 1.5808 59.8721 1.84485C60.1422 2.04116 60.3799 2.27881 60.5762 2.54895C60.8402 2.91238 61.0058 3.39054 61.0938 4.20227C61.1834 5.02951 61.1846 6.10315 61.1846 7.62122V32.379C61.1846 33.8969 61.1833 34.9698 61.0938 35.797C61.0058 36.6088 60.8402 37.0869 60.5762 37.4503C60.3798 37.7206 60.1424 37.959 59.8721 38.1554C59.5087 38.4194 59.0304 38.584 58.2188 38.672C57.3915 38.7616 56.3179 38.7628 54.7998 38.7628H7.2002C5.68213 38.7628 4.60849 38.7616 3.78125 38.672C2.96956 38.584 2.49135 38.4194 2.12793 38.1554C1.85765 37.959 1.62021 37.7206 1.42383 37.4503C1.15982 37.0869 0.994206 36.6088 0.90625 35.797C0.816655 34.9698 0.81543 33.8969 0.81543 32.379V7.62122C0.81543 6.10315 0.816624 5.02951 0.90625 4.20227C0.994232 3.39054 1.15978 2.91238 1.42383 2.54895C1.62014 2.27881 1.85779 2.04116 2.12793 1.84485C2.49136 1.5808 2.96952 1.41525 3.78125 1.32727C4.60849 1.23764 5.68213 1.23645 7.2002 1.23645Z" stroke="#F5F5F5" stroke-width="1.63158"/>
</g>
<rect x="0.815789" y="0.815789" width="60.3684" height="38.3684" rx="7.18421" stroke="#F5F5F5" stroke-width="1.63158"/>
<defs>
<filter id="filter0_f_4880_22780" x="-5.16623" y="14.1988" width="36.1664" height="36.1667" filterUnits="userSpaceOnUse" color-interpolation-filters="sRGB">
<feFlood flood-opacity="0" result="BackgroundImageFix"/>
<feBlend mode="normal" in="SourceGraphic" in2="BackgroundImageFix" result="shape"/>
<feGaussianBlur stdDeviation="3.44444" result="effect1_foregroundBlur_4880_22780"/>
</filter>
<filter id="filter1_f_4880_22780" x="10.3338" y="14.1988" width="34.4448" height="34.4444" filterUnits="userSpaceOnUse" color-interpolation-filters="sRGB">
<feFlood flood-opacity="0" result="BackgroundImageFix"/>
<feBlend mode="normal" in="SourceGraphic" in2="BackgroundImageFix" result="shape"/>
<feGaussianBlur stdDeviation="3.44444" result="effect1_foregroundBlur_4880_22780"/>
</filter>
<filter id="filter2_f_4880_22780" x="6.88845" y="15.9209" width="29.2778" height="34.4444" filterUnits="userSpaceOnUse" color-interpolation-filters="sRGB">
<feFlood flood-opacity="0" result="BackgroundImageFix"/>
<feBlend mode="normal" in="SourceGraphic" in2="BackgroundImageFix" result="shape"/>
<feGaussianBlur stdDeviation="3.44444" result="effect1_foregroundBlur_4880_22780"/>
</filter>
<filter id="filter3_f_4880_22780" x="34.4441" y="-9.91233" width="32.7221" height="32.7222" filterUnits="userSpaceOnUse" color-interpolation-filters="sRGB">
<feFlood flood-opacity="0" result="BackgroundImageFix"/>
<feBlend mode="normal" in="SourceGraphic" in2="BackgroundImageFix" result="shape"/>
<feGaussianBlur stdDeviation="3.44444" result="effect1_foregroundBlur_4880_22780"/>
</filter>
<filter id="filter4_f_4880_22780" x="-10.3332" y="-15.0791" width="37.8891" height="37.8889" filterUnits="userSpaceOnUse" color-interpolation-filters="sRGB">
<feFlood flood-opacity="0" result="BackgroundImageFix"/>
<feBlend mode="normal" in="SourceGraphic" in2="BackgroundImageFix" result="shape"/>
<feGaussianBlur stdDeviation="3.44444" result="effect1_foregroundBlur_4880_22780"/>
</filter>
<filter id="filter5_f_4880_22780" x="-8.61155" y="-1.30124" width="32.7221" height="32.7222" filterUnits="userSpaceOnUse" color-interpolation-filters="sRGB">
<feFlood flood-opacity="0" result="BackgroundImageFix"/>
<feBlend mode="normal" in="SourceGraphic" in2="BackgroundImageFix" result="shape"/>
<feGaussianBlur stdDeviation="3.44444" result="effect1_foregroundBlur_4880_22780"/>
</filter>
<filter id="filter6_f_4880_22780" x="10.3338" y="-16.8012" width="41.3334" height="43.0556" filterUnits="userSpaceOnUse" color-interpolation-filters="sRGB">
<feFlood flood-opacity="0" result="BackgroundImageFix"/>
<feBlend mode="normal" in="SourceGraphic" in2="BackgroundImageFix" result="shape"/>
<feGaussianBlur stdDeviation="3.44444" result="effect1_foregroundBlur_4880_22780"/>
</filter>
<filter id="filter7_f_4880_22780" x="3.44412" y="0.420926" width="29.2778" height="30.9999" filterUnits="userSpaceOnUse" color-interpolation-filters="sRGB">
<feFlood flood-opacity="0" result="BackgroundImageFix"/>
<feBlend mode="normal" in="SourceGraphic" in2="BackgroundImageFix" result="shape"/>
<feGaussianBlur stdDeviation="3.44444" result="effect1_foregroundBlur_4880_22780"/>
</filter>
<filter id="filter8_f_4880_22780" x="39.6111" y="-8.19004" width="37.8891" height="37.8889" filterUnits="userSpaceOnUse" color-interpolation-filters="sRGB">
<feFlood flood-opacity="0" result="BackgroundImageFix"/>
<feBlend mode="normal" in="SourceGraphic" in2="BackgroundImageFix" result="shape"/>
<feGaussianBlur stdDeviation="3.44444" result="effect1_foregroundBlur_4880_22780"/>
</filter>
<filter id="filter9_f_4880_22780" x="38.8719" y="12.6488" width="36.101" height="38.3688" filterUnits="userSpaceOnUse" color-interpolation-filters="sRGB">
<feFlood flood-opacity="0" result="BackgroundImageFix"/>
<feBlend mode="normal" in="SourceGraphic" in2="BackgroundImageFix" result="shape"/>
<feGaussianBlur stdDeviation="3.44444" result="effect1_foregroundBlur_4880_22780"/>
</filter>
<filter id="filter10_f_4880_22780" x="36.2449" y="9.20218" width="43.0541" height="27.1373" filterUnits="userSpaceOnUse" color-interpolation-filters="sRGB">
<feFlood flood-opacity="0" result="BackgroundImageFix"/>
<feBlend mode="normal" in="SourceGraphic" in2="BackgroundImageFix" result="shape"/>
<feGaussianBlur stdDeviation="3.44444" result="effect1_foregroundBlur_4880_22780"/>
</filter>
<filter id="filter11_f_4880_22780" x="31.0008" y="12.4766" width="32.7221" height="32.7222" filterUnits="userSpaceOnUse" color-interpolation-filters="sRGB">
<feFlood flood-opacity="0" result="BackgroundImageFix"/>
<feBlend mode="normal" in="SourceGraphic" in2="BackgroundImageFix" result="shape"/>
<feGaussianBlur stdDeviation="3.44444" result="effect1_foregroundBlur_4880_22780"/>
</filter>
<filter id="filter12_f_4880_22780" x="27.5554" y="14.1988" width="27.5551" height="34.4444" filterUnits="userSpaceOnUse" color-interpolation-filters="sRGB">
<feFlood flood-opacity="0" result="BackgroundImageFix"/>
<feBlend mode="normal" in="SourceGraphic" in2="BackgroundImageFix" result="shape"/>
<feGaussianBlur stdDeviation="3.44444" result="effect1_foregroundBlur_4880_22780"/>
</filter>
<filter id="filter13_f_4880_22780" x="20.6668" y="17.6431" width="25.8334" height="25.8333" filterUnits="userSpaceOnUse" color-interpolation-filters="sRGB">
<feFlood flood-opacity="0" result="BackgroundImageFix"/>
<feBlend mode="normal" in="SourceGraphic" in2="BackgroundImageFix" result="shape"/>
<feGaussianBlur stdDeviation="3.44444" result="effect1_foregroundBlur_4880_22780"/>
</filter>
<filter id="filter14_f_4880_22780" x="-13.7785" y="12.4766" width="32.7221" height="32.7222" filterUnits="userSpaceOnUse" color-interpolation-filters="sRGB">
<feFlood flood-opacity="0" result="BackgroundImageFix"/>
<feBlend mode="normal" in="SourceGraphic" in2="BackgroundImageFix" result="shape"/>
<feGaussianBlur stdDeviation="3.44444" result="effect1_foregroundBlur_4880_22780"/>
</filter>
<clipPath id="clip0_4880_22780">
<rect width="62" height="40" rx="8" fill="white"/>
</clipPath>
<clipPath id="clip1_4880_22780">
<path d="M0 7.62103C0 4.62124 0 3.12134 0.763932 2.06988C1.01065 1.7303 1.30928 1.43167 1.64886 1.18495C2.70032 0.421021 4.20021 0.421021 7.2 0.421021H54.8C57.7998 0.421021 59.2997 0.421021 60.3511 1.18495C60.6907 1.43167 60.9893 1.7303 61.2361 2.06988C62 3.12134 62 4.62123 62 7.62102V32.3789C62 35.3787 62 36.8786 61.2361 37.9301C60.9893 38.2696 60.6907 38.5683 60.3511 38.815C59.2997 39.5789 57.7998 39.5789 54.8 39.5789H7.2C4.20021 39.5789 2.70032 39.5789 1.64886 38.815C1.30928 38.5683 1.01065 38.2696 0.763932 37.9301C0 36.8786 0 35.3787 0 32.3789V7.62103Z" fill="white"/>
</clipPath>
<clipPath id="clip2_4880_22780">
<rect y="0.421021" width="62" height="39.1579" rx="3.26316" fill="white"/>
</clipPath>
<clipPath id="clip3_4880_22780">
<rect width="58.7368" height="19.0438" fill="white" transform="translate(1.63184 10.2104)"/>
</clipPath>
</defs>
</svg>
